<svg xmlns="http://www.w3.org/2000/svg" viewBox="0 0 100 100" width="100%" height="100%">
  <defs>
    <linearGradient id="ladderGrad" x1="0%" y1="0%" x2="100%" y2="100%">
      <stop offset="0%" stop-color="#0ea5e9" />
      <stop offset="60%" stop-color="#8b5cf6" />
      <stop offset="100%" stop-color="#ec4899" />
    </linearGradient>
  </defs>
  <circle cx="50" cy="50" r="45" fill="#f8fafc" stroke="#e2e8f0" stroke-width="1" />
  <path d="M 50 15 L 50 85 M 25 50 L 75 50" stroke="#cfe9f7" stroke-width="5" stroke-linecap="round" opacity="0.3" />
  <path d="M50 80 L72 80 M50 71 L68 73 M50 62 L64 67 M50 53 L60 61 M50 44 L48 54 M50 35 L38 47 M50 26 L29 39 M50 17 L21 31" stroke="url(#ladderGrad)" stroke-width="5" stroke-linecap="round" fill="none" />
  <path d="M21 31 C 30 48, 40 68, 50 80" stroke="#ec4899" stroke-width="4.5" stroke-linecap="round" fill="none" opacity="0.8" />
  <circle cx="50" cy="17" r="4" fill="#f43f5e" />
  <circle cx="21" cy="31" r="3.5" fill="#0ea5e9" />
</svg>
